PathFileType	4	(X/Y/Z)	F:\biomechanics\vid_Sports2D\vid_Sports2D_px_person00.trc
DataRate	CameraRate	NumFrames	NumMarkers	Units	OrigDataRate	OrigDataStartFrame	OrigNumFrames
250.0	250.0	9	22	m	250.0	303	808
Frame#	Time	Hip			RHip			RKnee			RAnkle			RBigToe			RSmallToe			RHeel			LHip			LKnee			LAnkle			LBigToe			LSmallToe			LHeel			Neck			Head			Nose			RShoulder			RElbow			RWrist			LShoulder			LElbow			LWrist			
		X1	Y1	Z1	X2	Y2	Z2	X3	Y3	Z3	X4	Y4	Z4	X5	Y5	Z5	X6	Y6	Z6	X7	Y7	Z7	X8	Y8	Z8	X9	Y9	Z9	X10	Y10	Z10	X11	Y11	Z11	X12	Y12	Z12	X13	Y13	Z13	X14	Y14	Z14	X15	Y15	Z15	X16	Y16	Z16	X17	Y17	Z17	X18	Y18	Z18	X19	Y19	Z19	X20	Y20	Z20	X21	Y21	Z21	X22	Y22	Z22
303	1.2135018587360598	217.7960883543361	335.1088766228897	0.0	213.72672655629756	336.5898259626888	0.0	285.1516802605394	377.36537874174695	0.0	264.0480458871184	449.54887970834324	0.0	294.7364116111722	458.14207562987934	0.0	287.6446456824157	461.886094105029	0.0	255.52548917372468	459.05066714881235	0.0	224.18451780347883	333.7022574799815	0.0	280.41775557667364	375.224318173782	0.0	262.8842531284376	442.8173803383775	0.0	290.1283788263379	453.4813742300832	0.0	288.48007208755723	450.07010720575295	0.0	251.38045284932326	451.27442534918714	0.0	233.4212787641247	241.63917345317992	0.0	230.09050842856217	191.3583503917743	0.0	248.03903816670973	211.69761420358583	0.0	229.21741155030733	262.4200702166656	0.0	257.5903991483029	308.8245532481787	0.0	296.35819141914124	291.4770276684778	0.0	241.5003070034796	252.00171407715183	0.0	268.2475583523389	274.3087986795184	0.0	299.44370457088655	277.24842433685706	0.0
304	1.2175068153655515	218.40528465948725	335.5608954990673	0.0	214.31184948357907	337.0702569106378	0.0	285.7933410861992	377.6144511072356	0.0	264.0781310087092	449.623996059368	0.0	294.77257864482215	458.23698881914487	0.0	287.61466067699354	461.9331683700995	0.0	255.56536045091462	459.0938766100429	0.0	224.7582229860783	334.1829662598821	0.0	280.97856467254167	375.51081642489896	0.0	263.01432526935525	442.9321804361618	0.0	290.2021974288616	453.56180967790834	0.0	288.5788546217939	450.1284311175625	0.0	251.48907067116295	451.37880493549847	0.0	233.82082682085633	241.9709635198457	0.0	230.35960671334163	191.6922413707194	0.0	248.4112192974322	212.05249789621337	0.0	229.66605049146017	262.760158250824	0.0	258.91367492199873	308.7761554594139	0.0	297.3546478922287	290.8453691209765	0.0	241.8985028214128	252.26056396472495	0.0	268.8653671419013	274.32476138213906	0.0	300.08397676509315	276.58731593651214	0.0
305	1.2215117719950435	219.0019168085153	335.9981575707387	0.0	214.88668419031862	337.53535150764685	0.0	286.41714930903356	377.86160992430473	0.0	264.10299044288473	449.70107325147507	0.0	294.8035952410329	458.3291516171714	0.0	287.58507315619704	461.9783722529671	0.0	255.59830382108706	459.1391640835217	0.0	225.3185518046014	334.64736115598026	0.0	281.53434333243996	375.7960900751644	0.0	263.14836142536353	443.0447257439601	0.0	290.2846358472619	453.64187098360685	0.0	288.681951620336	450.1836544856431	0.0	251.5995798479311	451.488811170229	0.0	234.2201572175728	242.28970215960246	0.0	230.62588601257306	192.01553454216128	0.0	248.77885829178496	212.3920818769518	0.0	230.11576020539667	263.0835810747291	0.0	260.23411598178353	308.70123147680295	0.0	298.3332647377269	290.1759478692756	0.0	242.30033498896032	252.5095918448377	0.0	269.49077159722117	274.3272094253423	0.0	300.71365496912546	275.9053795627581	0.0
306	1.2255167286245354	219.5860511502907	336.41956855265835	0.0	215.4520093341831	337.9839098000948	0.0	287.0233706183782	378.1069916101975	0.0	264.1223371120675	449.779187225976	0.0	294.82945288630583	458.4176213788354	0.0	287.556213929357	462.0212020813513	0.0	255.62307291407308	459.18559477852176	0.0	225.8649287884949	335.0951654010391	0.0	282.0837460376323	376.0806516496639	0.0	263.283848008362	443.1541862750459	0.0	290.37334841649437	453.72094650570943	0.0	288.78689603481894	450.2354730156495	0.0	251.7093498359542	451.6028687535719	0.0	234.6193793085621	242.59546278386887	0.0	230.88951384136686	192.32836585768544	0.0	249.14213969658877	212.71558960137182	0.0	230.56642006143804	263.3902027754544	0.0	261.5509050556891	308.60028106902155	0.0	299.29245819570184	289.4679411631478	0.0	242.70624375833216	252.74904344509173	0.0	270.1242846581613	274.31659147787775	0.0	301.3318529095295	275.2043626658992	0.0
307	1.2295216852540274	220.1578214320024	336.8239057635819	0.0	216.0086921635162	338.4147273678721	0.0	287.6124163129714	378.35078736928807	0.0	264.13606350290706	449.8573707589729	0.0	294.8502317368302	458.5017022602251	0.0	287.52825810814056	462.06123093675546	0.0	255.63862317744642	459.2320728782397	0.0	226.39699480721217	335.526142355177	0.0	282.6256108453042	376.36491995352094	0.0	263.4185336647476	443.259729609174	0.0	290.46585689916617	453.79855502677	0.0	288.8913382612186	450.28376280260403	0.0	251.81614746822092	451.7193285644453	0.0	235.01856554132166	242.8882580929697	0.0	231.1507918282609	192.63072942660074	0.0	249.50123593179796	213.0223037392669	0.0	231.01792005172166	263.6798414640918	0.0	262.86302934156595	308.4737737149336	0.0	300.2305997790746	288.7207783239385	0.0	243.11660729355165	252.9792103859997	0.0	270.7660532631767	274.2932274820101	0.0	301.9377464745123	274.48590772722537	0.0
308	1.2335266418835193	220.71710015264748	337.21002122076794	0.0	216.5573321550907	338.8266957959836	0.0	288.184803944832	378.59319843047496	0.0	264.1442389824476	449.9346741782698	0.0	294.86603397805237	458.5809498745342	0.0	287.5013373167449	462.0981269523075	0.0	255.6441339933231	459.2773608040108	0.0	226.91421426397739	335.939976206718	0.0	283.15867236679725	376.64908555520344	0.0	263.55036120332073	443.3603208967616	0.0	290.55955259449195	453.8743653476394	0.0	288.9931054628928	450.32851288035226	0.0	251.9179995310765	451.83647183538346	0.0	235.41764184222532	243.16801778476432	0.0	231.40993007938627	192.9224616471104	0.0	249.85623368325435	213.3116082636712	0.0	231.4702240561214	263.9523625782619	0.0	264.1690842217463	308.32200525889533	0.0	301.1459350750703	287.93449376091655	0.0	243.5314931567084	253.20020789491292	0.0	271.41559978775376	274.2571211732368	0.0	302.53051932605763	273.7513317572731	0.0
309	1.2375315985130113	221.26348197805805	337.57681684655165	0.0	217.09816189111706	339.2186304984465	0.0	288.7410449234327	378.83433399261105	0.0	264.14711026815775	450.01017639718714	0.0	294.8768970374045	458.6551535511554	0.0	287.4755897171518	462.1316574394032	0.0	255.63907032805287	459.32014305698544	0.0	227.41601417594597	336.33598056687276	0.0	283.68156552825405	376.9329330697286	0.0	263.67743794008373	443.4547185770714	0.0	290.65186441634876	453.9481839499458	0.0	289.09020928889487	450.36988133085816	0.0	252.013140157617	451.95247434013635	0.0	235.81641405579867	243.434742737511	0.0	231.66701798418498	193.20326868215636	0.0	250.20726548813096	213.5831043776652	0.0	231.92343433058426	264.2077704342583	0.0	265.46739114960627	308.1450699009517	0.0	302.0365411629251	287.10979889521053	0.0	243.95070378123233	253.41202165373232	0.0	272.0719765839345	274.2079688513355	0.0	303.10932632196665	273.0016526137229	0.0
310	1.2415365551425033	221.7964627946454	337.92317461986437	0.0	217.6310918084989	339.58917377501325	0.0	289.28157158422516	379.0741827145369	0.0	264.1451116705648	450.0829662775144	0.0	294.88279456211177	458.72430251499765	0.0	287.451159931762	462.1616748132833	0.0	255.62323096150092	459.3591779633414	0.0	227.90211283805775	336.71299022638385	0.0	284.1930853144639	377.2158568222088	0.0	263.7980710528888	443.5417906799979	0.0	290.7405491813395	454.0199645797345	0.0	289.1808579377127	450.40829047902946	0.0	252.1000793696219	452.0655443857987	0.0	236.214605405459	243.68860187648554	0.0	231.92200336191772	193.47280508233504	0.0	250.55458395008503	213.83662335374424	0.0	232.37779097719485	264.44618297138186	0.0	266.7562361814009	307.9429300417361	0.0	302.900526389981	286.2479193293011	0.0	244.37392883858408	253.61467076243486	0.0	272.7340473340697	274.14528605740793	0.0	303.6733317494222	272.23773259676346	0.0
311	1.2455415117719952	222.31547348536543	338.2480238278296	0.0	218.15565822852406	339.9369908050804	0.0	289.80679418207666	379.3126374198177	0.0	264.1388722284021	450.15212491165903	0.0	294.8838538698745	458.7885391845453	0.0	287.4282130010587	462.18811104193003	0.0	255.59677293003026	459.3934187351162	0.0	228.37240481783215	337.0696811252068	0.0	284.6922591826265	377.4970706198385	0.0	263.9107831741268	443.6209408077814	0.0	290.8238121684418	454.08988987108154	0.0	289.2634561074794	450.44443626838773	0.0	252.17764938492147	452.1742431438515	0.0	236.61180270377017	243.92979972154802	0.0	232.17458693769112	193.73079135258774	0.0	250.8984780860045	214.07211807903406	0.0	232.83363564188917	264.66773610455465	0.0	268.03398577601496	307.71550164196276	0.0	303.7364419770523	285.35043432576947	0.0	244.80064319334198	253.80814887949438	0.0	273.4005217022444	274.06846265100626	0.0	304.22170092623384	271.4602981989323	0.0
